<svg width="33" height="21" viewBox="0 0 33 21" fill="none" xmlns="http://www.w3.org/2000/svg">
<path d="M32.5006 1.48317C32.2703 1.28164 31.9248 1.25285 31.6657 1.4112C31.4066 1.56954 31.2626 1.87183 31.3202 2.17413C31.3778 2.46203 30.9316 2.92267 30.111 3.4121C29.161 3.9735 27.8654 4.47732 26.829 4.88038C26.5843 4.98115 26.354 5.06752 26.138 5.15389C25.6486 5.35541 25.3895 5.21147 25.2311 5.05312C24.6985 4.56369 24.4538 3.26815 24.7273 2.37566C24.8281 2.04457 24.9864 1.9726 25.0296 1.94381C25.3175 1.81425 25.7926 1.9582 25.9797 2.04457C26.3252 2.21731 26.757 2.07336 26.9298 1.72789C27.1025 1.38241 26.9729 0.950557 26.6419 0.763423C26.3971 0.619473 24.1659 -0.546518 22.9999 0.792213C22.928 0.878583 22.856 0.964952 22.784 1.03693C22.1794 1.74228 21.9203 2.04457 19.8042 2.5484C18.7534 2.80751 18.12 3.03783 17.5586 3.23936C16.7525 3.54165 16.1767 3.74318 14.5933 3.90152C11.5559 4.21821 8.61936 5.71529 5.89871 8.39275C3.72508 10.5088 3.6531 13.0711 4.54559 14.669C4.68954 14.9281 4.74712 15.072 4.76151 15.144C4.63196 15.2591 4.27208 15.4319 3.96979 15.5902C3.69629 15.7342 3.3652 15.9069 2.97654 16.1228C1.46507 16.9721 0.889268 18.6276 0.990033 19.4769C1.04761 19.9375 1.30672 20.283 1.68099 20.3981C2.14163 20.5277 2.60227 20.3118 3.04851 19.7648L3.06291 19.7504C4.15692 18.4116 4.15692 18.4116 6.02827 18.1381C7.77006 17.879 7.95719 16.7706 8.05796 16.2236C8.05796 16.2092 8.05796 16.1948 8.07235 16.1804H8.08675C9.23835 16.1804 10.9801 15.4031 12.8227 14.597C13.2114 14.4242 13.6144 14.2515 13.9887 14.0788C14.7084 13.7621 14.9388 14.0356 15.0107 14.1219C15.313 14.4962 15.3418 15.3023 15.0539 15.7342L15.0395 15.7486C14.2622 16.9002 13.4561 18.095 14.4637 19.8511C14.8236 20.4845 15.4858 20.8444 16.2343 20.8444C16.4358 20.8444 16.6374 20.8156 16.8389 20.7724C17.6018 20.5853 18.1056 20.1103 18.12 19.5632C18.12 19.3905 18.0769 18.8291 17.3283 18.5844C17.17 18.5412 16.8965 18.4116 16.8389 18.1669C16.7525 17.879 16.9396 17.4472 17.3427 17.0009C18.2208 16.0221 18.0049 14.9425 17.8465 14.1507C17.7458 13.6469 17.645 13.2151 17.8033 12.8696C18.3791 11.6316 19.6027 11.6748 20.1065 11.7612C20.3513 11.8044 20.4952 12.0203 20.7975 12.5817C21.143 13.2007 21.618 14.0644 22.6688 14.6977C23.403 15.144 23.5038 15.3599 23.5181 15.4031C23.5325 15.4607 23.4462 15.6766 23.3742 15.8493C23.3166 15.9789 23.259 16.1228 23.2015 16.2812C23.1295 16.4827 23.0575 16.6555 22.9855 16.7994C22.8272 17.1593 22.5969 17.6631 22.9999 18.0806C23.4318 18.5124 23.9932 18.2533 24.4106 18.0662C25.5622 17.5479 25.663 16.8714 25.7926 16.0365C25.8357 15.8062 25.8789 15.5327 25.9365 15.216C26.2244 13.8916 25.116 12.884 24.2235 12.0635C23.7773 11.6604 23.3166 11.2286 23.1871 10.9119C23.1583 10.8399 23.1439 10.7823 23.1295 10.7535C23.259 10.6959 23.6477 10.6096 24.4394 10.6816C24.7273 10.7103 24.972 10.8111 25.188 10.9263C25.5047 11.0702 25.9509 11.2717 26.4115 11.027C26.8722 10.7823 27.0449 10.2497 27.1745 9.48677C27.304 8.69505 27.5199 8.5511 28.3836 8.00409C29.0026 7.61542 29.8519 7.06842 30.9603 6.04637C32.3135 4.80841 32.99 3.6856 32.9756 2.72114C32.9756 1.92941 32.5726 1.55515 32.5006 1.48317Z" fill="#7963FE"/>
</svg>
